<svg width="100%" height="100%" viewBox="0 0 164 46" fill="none" xmlns="http://www.w3.org/2000/svg">
<g clip-path="url(#clip0_922_20495)">
<path d="M139.366 24.1386C139.366 22.7723 139.366 21.1783 139.594 19.8119C140.05 17.5347 140.734 15.2575 141.875 13.208C142.559 11.8416 143.244 10.703 144.156 9.33667C145.296 7.51489 146.893 5.92083 148.49 4.55449C150.543 2.50499 153.28 2.27726 155.789 3.18815C158.298 3.87132 160.122 5.92083 161.263 8.19805C164 14.3466 164.684 20.4951 163.088 27.099C162.175 30.2872 161.263 33.4753 159.666 36.4357C157.613 40.0792 154.42 41.901 150.543 42.8119C147.805 43.4951 145.296 41.901 143.7 39.6238C142.331 37.802 141.191 35.7525 140.278 33.703C139.822 32.5644 139.594 31.6535 139.366 30.5149C139.138 28.6931 139.138 26.8713 139.366 25.0495C139.366 24.5941 139.366 24.3664 139.366 24.1386ZM156.017 20.2674C156.017 18.2179 155.561 16.3961 155.333 14.5743C155.104 13.4357 154.42 12.9802 153.28 12.7525C151.911 12.5248 150.771 12.9802 150.086 14.1188C148.49 16.6238 146.893 19.3565 146.437 22.3169C146.209 23.9109 146.209 25.2773 146.437 26.8713C146.437 28.4654 146.437 30.5149 147.121 31.8812C147.805 33.0198 149.174 33.4753 150.543 33.4753C152.367 33.2476 153.964 32.5644 154.192 30.7426C154.648 28.9208 154.876 26.8713 155.333 25.0495C155.561 23.9109 155.789 22.5446 156.017 21.406C156.017 20.9505 156.017 20.4951 156.017 20.2674Z" fill="white"/>
<path d="M101.73 20.2673C104.011 20.2673 106.064 20.2673 107.889 20.2673C109.713 20.2673 110.17 20.495 110.398 22.3168C110.626 23.2277 110.626 24.1386 110.626 25.0495C110.398 27.099 110.17 27.3267 108.117 27.5545C106.748 27.7822 105.38 27.7822 104.239 27.5545C101.73 27.3267 101.502 27.5545 101.274 29.8317C101.046 31.6535 101.046 33.4752 101.274 35.297C101.502 37.1188 101.958 37.1188 103.783 36.8911C105.38 36.4356 106.976 36.4356 108.801 36.2079C109.713 36.2079 110.398 36.6634 110.398 37.5743V37.802C111.538 42.8119 110.854 44.1782 105.608 44.8614C102.871 45.3168 99.9053 45.7723 97.1682 46C95.1153 46.2277 93.9748 45.0891 92.8344 43.495C91.4658 40.9901 91.2377 38.4851 91.922 35.7525C92.1501 35.0693 92.3782 34.3861 92.3782 33.703C93.0625 26.8713 93.5187 20.0396 94.2029 13.2079C94.431 10.0198 94.6591 6.83168 95.3434 3.41584C95.7996 1.59406 96.712 0.455445 98.3086 0.227723C102.871 0.227723 107.204 0 111.31 0C112.907 0 113.591 0.683168 113.591 2.27723C113.591 3.18812 113.591 4.32673 113.363 5.23762C112.907 7.0594 112.907 7.0594 110.854 7.28713C109.257 7.28713 107.661 7.28713 106.064 7.51485C103.783 7.74257 103.327 8.19802 102.871 10.2475C102.642 11.3861 102.414 12.7525 101.958 13.8911C101.502 15.9406 101.502 17.9901 101.73 20.2673Z" fill="white"/>
<path d="M42.6539 27.5544C42.6539 29.6039 42.4258 31.4257 41.9696 33.2475C41.5135 35.297 40.6011 36.891 39.2325 38.4851C36.0392 41.6732 32.1616 42.3564 28.0559 40.99C26.9154 40.7623 25.7749 39.8514 25.0906 38.9405C23.9502 37.5742 23.0378 35.9801 22.3535 34.1583C20.5288 28.9207 23.0378 22.7722 26.9154 19.5841C29.1963 17.7623 32.1616 17.0791 35.3549 17.7623C38.092 18.4455 40.373 19.5841 41.5135 22.089C41.9696 22.9999 42.1977 24.1385 42.4258 25.0494C42.4258 25.7326 42.6539 26.6435 42.6539 27.5544ZM27.5997 29.3762C27.5997 30.0593 27.5997 30.9702 27.8278 31.6534C28.0559 33.0197 29.1963 35.297 30.793 35.297C32.3897 35.5247 34.2144 34.6138 34.8987 33.2475C36.0392 31.6534 36.2673 29.6039 35.583 27.5544C35.3549 26.8712 34.8987 26.188 34.6706 25.5049C33.302 22.9999 30.3368 23.6831 28.9683 25.9603C28.5121 26.6435 27.8278 27.5544 27.8278 28.4653C27.5997 28.693 27.5997 28.9207 27.5997 29.3762Z" fill="white"/>
<path d="M46.3033 34.8416C46.0752 31.8812 48.3562 30.2871 51.3214 30.2871C53.8304 30.0594 55.8833 32.5644 55.8833 35.297C55.8833 37.5743 53.3743 40.5346 51.3214 40.5346C48.8124 40.5346 46.3033 37.5743 46.3033 34.8416Z" fill="#FFFC62"/>
<path d="M88.7288 13.2078C88.5007 14.1187 88.5007 15.2573 88.2726 16.1682C88.0446 20.0395 87.8165 24.1385 87.5884 28.0098C87.3603 31.6534 87.1322 35.2969 86.676 39.1682C86.2198 42.1286 85.3074 42.5841 82.3422 42.3564C78.6927 42.1286 78.4646 41.9009 78.6927 38.2573C78.9208 34.6138 79.1489 30.9702 79.377 27.3267C79.605 25.2771 79.377 25.0494 77.3241 25.0494H77.096C72.306 24.8217 72.306 24.8217 71.6217 29.6039C71.1656 33.0197 70.7094 36.2078 70.4813 39.6237C70.2532 42.1286 68.8846 43.2672 66.3756 43.0395C65.6913 43.0395 65.007 42.8118 64.3227 42.5841C61.8137 42.1286 61.3575 41.6732 61.5856 39.396C61.8137 35.2969 62.498 31.1979 62.7261 27.0989C62.9541 22.7722 63.1822 18.6732 63.4103 14.3465C63.8665 11.3861 64.3227 8.19794 64.7789 5.00982C65.2351 2.50487 66.1475 2.04942 68.8846 2.27715C71.3936 2.50487 72.5341 3.41576 72.5341 5.92071C72.5341 8.65338 72.5341 11.1583 72.306 13.891C72.306 14.5742 72.306 15.0296 72.306 15.7128C72.5341 17.7623 73.2184 17.99 75.0432 17.7623C79.6051 17.0791 80.0612 16.6237 80.5174 11.8415C80.7455 10.0197 80.5174 8.19794 80.7455 6.60388C80.9736 4.09893 83.4827 2.04942 85.9917 2.50487C87.3603 2.73259 88.9569 4.7821 89.185 6.8316C89.185 7.74249 89.185 8.65338 89.185 9.56427C88.9569 10.0197 88.9569 12.7524 88.7288 13.2078Z" fill="white"/>
<path d="M116.328 12.0692C116.556 6.37618 117.925 5.46528 123.627 5.00984C128.645 4.78212 131.611 7.51479 133.892 11.1584C136.173 14.8019 136.173 18.6732 134.804 22.5445C134.348 23.6831 133.664 24.8217 133.435 25.9603C133.207 26.6435 133.207 27.3267 133.435 28.0098C134.348 31.198 135.488 34.3861 136.401 37.5742C136.629 38.2574 136.629 38.7128 136.629 39.396C136.629 41.4455 135.488 42.5841 133.207 43.0395C131.383 43.2673 130.242 42.5841 129.786 40.3069C129.33 38.2574 128.645 35.9801 128.189 33.9306C127.733 32.1088 127.049 31.198 125.908 31.4257C123.855 31.6534 122.487 33.0197 122.487 35.0692C122.487 36.6633 122.715 38.0296 122.487 39.6237C122.487 41.4455 121.575 42.3564 119.522 42.3564C117.469 42.3564 115.872 41.2178 115.644 39.6237C115.644 38.0296 115.644 36.2079 115.644 34.6138C115.644 33.0197 115.644 31.4257 115.644 29.8316C115.644 29.8316 116.1 17.99 116.328 12.0692ZM122.943 23.9108C125.452 23.9108 127.505 22.089 128.189 19.8118C128.645 17.5346 127.277 14.1187 125.452 13.2079C123.855 12.5247 122.943 13.2079 122.715 14.8019C122.715 17.3069 122.715 19.8118 122.715 22.5445C122.487 22.7722 122.715 23.4554 122.943 23.9108Z" fill="white"/>
<path d="M19.1601 9.79202C19.1601 11.8415 19.1601 13.4356 18.932 15.2574C18.2477 20.495 17.7915 25.9603 17.3353 31.4257C17.1072 34.1584 17.1072 37.1187 17.3353 39.8514C17.3353 42.1286 16.4229 43.2673 14.142 43.7227C12.0891 44.1782 10.2644 43.0395 10.0363 40.7623C9.5801 37.3465 9.5801 33.9306 9.80819 30.2871C10.2644 25.7326 10.7206 21.1782 11.1768 16.6237C11.4049 14.8019 11.1768 12.9801 11.4049 11.1584C11.4049 9.79202 11.1768 9.10885 10.0363 9.10885C7.98344 9.10885 6.15868 9.10885 4.33392 9.10885C2.73726 9.10885 1.1406 9.10885 0.684409 7.51479C0.000125372 5.92073 -0.456064 4.32667 0.684409 2.73261C1.1406 2.27716 2.50917 1.59399 3.42154 1.59399C10.9487 1.82172 18.4758 1.59399 26.0029 2.73261C28.74 3.18805 28.74 3.41578 28.74 5.46528C28.74 8.42568 27.8277 9.79202 25.5467 10.0197C24.6343 10.0197 23.722 9.79202 22.8096 9.79202C21.6691 10.0197 20.5286 9.79202 19.1601 9.79202Z" fill="white"/>
</g>
<defs>
<clipPath id="clip0_922_20495">
<rect width="164" height="46" fill="white"/>
</clipPath>
</defs>
</svg>
