<svg width="52" height="87" viewBox="0 0 52 87" fill="none" xmlns="http://www.w3.org/2000/svg">
<path d="M51.189 86.2254L49.5193 86.3706L47.8018 86.0317L46.0367 86.9032L44.3193 86.7095L42.5541 86.5643L40.789 85.6444L39.0716 85.8381L37.3064 86.9032L35.589 86.0317L33.8239 85.6444L32.1064 85.596L30.3413 85.9833L28.5761 86.9516L26.8587 85.8865L25.0936 85.9349L23.3761 86.7579L21.611 86.2738L19.8936 86.8064L18.1284 85.9833L16.411 86.2254L14.6459 86.3706L12.8807 86.2254L11.1633 86.2738L9.39817 85.6444L7.68073 85.9349L5.9156 86.6127L4.15046 87L2.43303 86.5159L0.190826 86.8064L1.00183 84.5793L0.238532 82.8364L1.09725 81.0935L0.286239 79.3506L1.24037 77.6077L0.429358 75.8164L0.858716 74.0735L1.38349 72.3306L0.429358 70.5876L0.333945 68.8447L1.28807 67.1018L0.238532 65.3589L0 63.616L1.09725 61.8731L0.858716 60.1302L0.381651 58.3873L0.0477064 56.6444L1.33578 54.9015L0.190826 53.1586L0.524771 51.3673L0.954128 49.6244L0.0954128 47.8815L0.811009 46.1386L0.333945 44.3957L0.66789 42.6528L0.286239 40.9099L0.190826 39.1669L0.0954128 37.424L0.715596 35.6811L0.143119 33.9382L0.381651 32.1469L0.524771 30.404L1.33578 28.6611L0.858716 26.9182L1.19266 25.1753L1.28807 23.4324L0.0954128 21.6895L1.04954 19.9466L0.143119 18.2037L1.33578 16.4608L0.572477 14.6694L0.190826 12.9265L0.811009 11.1836L1.04954 9.44073L0.333945 7.69783L0.0954128 5.95493L0.572477 4.21202L0.524771 2.46912L0.381651 0.387312L2.43303 0L4.15046 0.193656H5.9156L7.63303 0.387312L9.39817 0L11.1156 0.48414L12.8807 0.871452L14.5982 0.774624L16.3633 1.30718L18.1284 1.06511L19.8459 0.145242L21.611 1.21035L23.3284 0.387312L25.0936 0.919866L26.811 0.387312L28.5761 0.193656L30.3413 1.06511L32.0587 1.21035L33.8239 0.290484L35.5413 1.35559L37.3064 1.11352L39.0239 0.871452L40.789 1.21035L42.5541 0.48414L44.2716 0.919866L46.0367 1.11352L47.7541 0.145242L49.5193 1.06511L51.4752 0.48414L51.0936 2.4207L51.3798 4.16361L51.189 5.95493L51.4275 7.69783L51.5706 9.44073L51.4275 11.1836L51.8092 12.9265L50.9982 14.6694L51.189 16.4124L50.855 18.1553L51.8092 19.8982L51.6183 21.6411L51.8569 23.384L50.5688 25.1269L51.5706 26.8698L51.7615 28.6127L51.6183 30.3556L50.7596 32.0985L51.3321 33.8898L51.9046 35.6327V37.3756L51.189 39.1185L51.8092 40.8614L51.4752 42.6043L50.9505 44.3472L51.2367 46.0901L50.855 47.8331L50.8073 49.576L51.3321 51.3189L50.855 53.1102L51.2844 54.8531L51.3321 56.596L51.4752 58.3389L50.9028 60.0818L52 61.8247L51.0936 63.5676L50.6165 65.3105L51.2844 67.0534L51.4752 68.7963L50.7596 70.5876L50.9505 72.3306L51.4752 74.0735L51.9523 75.8164L50.6642 77.5593L50.9505 79.3022L51.0936 81.0451L50.7596 82.788L51.9046 84.5793L51.189 86.2254Z" fill="currentColor"/>
</svg>
