<svg xmlns="http://www.w3.org/2000/svg" width="100%" height="100%" viewBox="0 0 24 24" fill="none">
  <path d="M11.2197 7.61879L6.31968 12.5188C6.11968 12.7188 5.88634 12.8148 5.61968 12.8068C5.35301 12.7988 5.11968 12.6945 4.91968 12.4938C4.73634 12.2938 4.64035 12.0605 4.63168 11.7938C4.62301 11.5271 4.71901 11.2938 4.91968 11.0938L11.5197 4.49379C11.6197 4.39379 11.728 4.32279 11.8447 4.28079C11.9613 4.23879 12.0863 4.21845 12.2197 4.21979C12.353 4.22112 12.478 4.24212 12.5947 4.28279C12.7113 4.32345 12.8197 4.39412 12.9197 4.49479L19.5197 11.0948C19.703 11.2781 19.7947 11.5075 19.7947 11.7828C19.7947 12.0581 19.703 12.2955 19.5197 12.4948C19.3197 12.6948 19.082 12.7948 18.8067 12.7948C18.5313 12.7948 18.294 12.6948 18.0947 12.4948L13.2197 7.61879L13.2197 18.7938C13.2197 19.0771 13.1237 19.3148 12.9317 19.5068C12.7397 19.6988 12.5023 19.7945 12.2197 19.7938C11.937 19.7931 11.6993 19.6971 11.5067 19.5058C11.314 19.3145 11.2183 19.0771 11.2197 18.7938L11.2197 7.61879Z" fill="currentColor"/>
</svg>