<svg width="24" height="24" viewBox="0 0 24 24" fill="none" xmlns="http://www.w3.org/2000/svg">
<path d="M20.3 20.3C19.9134 20.6866 19.2866 20.6866 18.9 20.3L13.9329 15.3329C13.5726 14.9726 13.0025 14.9494 12.5593 15.2008C12.253 15.3747 11.9248 15.5244 11.575 15.65C10.925 15.8833 10.2333 16 9.5 16C7.68333 16 6.146 15.371 4.888 14.113C3.62933 12.8543 3 11.3167 3 9.5C3 7.68333 3.62933 6.14567 4.888 4.887C6.146 3.629 7.68333 3 9.5 3C11.3167 3 12.8543 3.629 14.113 4.887C15.371 6.14567 16 7.68333 16 9.5C16 10.2333 15.8833 10.925 15.65 11.575C15.5244 11.9248 15.3747 12.253 15.2008 12.5593C14.9494 13.0025 14.9726 13.5726 15.3329 13.9329L20.3 18.9C20.6866 19.2866 20.6866 19.9134 20.3 20.3ZM9.5 14C10.75 14 11.8127 13.5627 12.688 12.688C13.5627 11.8127 14 10.75 14 9.5C14 8.25 13.5627 7.18733 12.688 6.312C11.8127 5.43733 10.75 5 9.5 5C8.25 5 7.18733 5.43733 6.312 6.312C5.43733 7.18733 5 8.25 5 9.5C5 10.75 5.43733 11.8127 6.312 12.688C7.18733 13.5627 8.25 14 9.5 14Z" fill="#F8F8F8"/>
</svg>
